<svg width="29" height="29" viewBox="0 0 29 29" fill="none" xmlns="http://www.w3.org/2000/svg">
<path d="M1.2085 1.20825H6.04183L9.28016 17.3878C9.39066 17.9441 9.6933 18.4439 10.1351 18.7995C10.5769 19.1552 11.1298 19.3441 11.6968 19.3333H23.4418C24.0089 19.3441 24.5617 19.1552 25.0035 18.7995C25.4454 18.4439 25.748 17.9441 25.8585 17.3878L27.7918 7.24992H7.25016M12.0835 25.3749C12.0835 26.0423 11.5425 26.5833 10.8752 26.5833C10.2078 26.5833 9.66683 26.0423 9.66683 25.3749C9.66683 24.7076 10.2078 24.1666 10.8752 24.1666C11.5425 24.1666 12.0835 24.7076 12.0835 25.3749ZM25.3752 25.3749C25.3752 26.0423 24.8342 26.5833 24.1668 26.5833C23.4995 26.5833 22.9585 26.0423 22.9585 25.3749C22.9585 24.7076 23.4995 24.1666 24.1668 24.1666C24.8342 24.1666 25.3752 24.7076 25.3752 25.3749Z" stroke="#4EA5D9" stroke-width="2" stroke-linecap="round" stroke-linejoin="round"/>
</svg>
