<svg width="16" height="16" viewBox="0 0 16 16" fill="none" xmlns="http://www.w3.org/2000/svg">
<path d="M10.6665 3.33337H14.6665" stroke="#4EA5D9" stroke-width="1.33333" stroke-linecap="round" stroke-linejoin="round"/>
<path d="M12.6665 1.33337V5.33337" stroke="#4EA5D9" stroke-width="1.33333" stroke-linecap="round" stroke-linejoin="round"/>
<path d="M14 7.66667V12.6667C14 13.0203 13.8595 13.3594 13.6095 13.6095C13.3594 13.8595 13.0203 14 12.6667 14H3.33333C2.97971 14 2.64057 13.8595 2.39052 13.6095C2.14048 13.3594 2 13.0203 2 12.6667V3.33333C2 2.97971 2.14048 2.64057 2.39052 2.39052C2.64057 2.14048 2.97971 2 3.33333 2H8.33333" stroke="#4EA5D9" stroke-width="1.33333" stroke-linecap="round" stroke-linejoin="round"/>
<path d="M14 9.99996L11.9427 7.94263C11.6926 7.69267 11.3536 7.55225 11 7.55225C10.6464 7.55225 10.3074 7.69267 10.0573 7.94263L4 14" stroke="#4EA5D9" stroke-width="1.33333" stroke-linecap="round" stroke-linejoin="round"/>
<path d="M5.99984 7.33329C6.73622 7.33329 7.33317 6.73634 7.33317 5.99996C7.33317 5.26358 6.73622 4.66663 5.99984 4.66663C5.26346 4.66663 4.6665 5.26358 4.6665 5.99996C4.6665 6.73634 5.26346 7.33329 5.99984 7.33329Z" stroke="#4EA5D9" stroke-width="1.33333" stroke-linecap="round" stroke-linejoin="round"/>
</svg>
