<svg width="26" height="26" viewBox="0 0 26 26" fill="none" xmlns="http://www.w3.org/2000/svg">
<path d="M11.2007 19.3154C11.2006 19.4719 11.2471 19.6253 11.335 19.7585C11.423 19.8916 11.5488 19.9992 11.6984 20.0691L13.4987 20.9112C13.6359 20.9754 13.7885 21.0056 13.9417 20.9991C14.095 20.9926 14.244 20.9496 14.3745 20.8741C14.505 20.7986 14.6127 20.6931 14.6874 20.5677C14.7621 20.4423 14.8012 20.3011 14.8011 20.1575V14.2629C14.8013 13.8456 14.9672 13.4432 15.2665 13.1337L21.7681 6.40628C21.8846 6.28549 21.9612 6.13571 21.9887 5.97504C22.0162 5.81437 21.9933 5.6497 21.9228 5.50093C21.8524 5.35217 21.7373 5.2257 21.5917 5.1368C21.446 5.0479 21.2759 5.00038 21.102 5H4.8998C4.72572 5.00006 4.5554 5.04734 4.40946 5.13611C4.26352 5.22488 4.14822 5.35134 4.07754 5.50017C4.00686 5.64899 3.98382 5.8138 4.01122 5.97462C4.03862 6.13544 4.11528 6.28539 4.23191 6.40628L10.7353 13.1337C11.0346 13.4432 11.2005 13.8456 11.2007 14.2629V19.3154Z" stroke="#13C4A3" stroke-width="2" stroke-linecap="round" stroke-linejoin="round"/>
</svg>
