<svg width="18" height="13" viewBox="0 0 18 13" fill="none" xmlns="http://www.w3.org/2000/svg">
<path d="M8.92484 0C4.97339 0 1.57919 2.37401 0.0767892 5.77272C-0.0255986 6.00434 -0.0255985 6.26839 0.0767893 6.50001C1.57919 9.89872 4.97339 12.2727 8.92484 12.2727C12.8763 12.2727 16.2705 9.89872 17.7729 6.50001C17.8753 6.26839 17.8753 6.00434 17.7729 5.77272C16.2705 2.37401 12.8763 0 8.92484 0ZM8.92484 10.2273C6.66665 10.2273 4.83393 8.39455 4.83393 6.13636C4.83393 3.87818 6.66665 2.04545 8.92484 2.04545C11.183 2.04545 13.0157 3.87818 13.0157 6.13636C13.0157 8.39455 11.183 10.2273 8.92484 10.2273ZM8.92484 3.68182C7.56665 3.68182 6.47029 4.77818 6.47029 6.13636C6.47029 7.49455 7.56665 8.59091 8.92484 8.59091C10.283 8.59091 11.3794 7.49455 11.3794 6.13636C11.3794 4.77818 10.283 3.68182 8.92484 3.68182Z" fill="white"/>
</svg>
