<svg width="23" height="18" viewBox="0 0 23 18" fill="none" xmlns="http://www.w3.org/2000/svg">
<g clip-path="url(#clip0_907_2046)">
<path d="M10.6001 0.500421L6.6113 6.45023C6.29044 6.96149 6.45248 7.63955 6.96757 7.94825L10.9563 10.1861C11.2911 10.3864 11.7075 10.3864 12.0434 10.1861L16.0321 7.94825C16.5483 7.63955 16.7093 6.96149 16.3884 6.45023L12.3997 0.500421C11.9822 -0.166807 11.0175 -0.166807 10.6001 0.500421Z" fill="#4EA5D9"/>
<path d="M11.4995 11.4978L0.664256 15.2575C0.262912 15.3972 0 15.7308 0 16.1023V17.0891C0 17.5928 0.476462 18 1.06453 18H21.9355C22.5235 18 23 17.5917 23 17.0891V16.1023C23 15.7308 22.7371 15.3972 22.3357 15.2575" fill="#4EA5D9"/>
</g>
<defs>
<clipPath id="clip0_907_2046">
<rect width="23" height="18" fill="white"/>
</clipPath>
</defs>
</svg>
