<svg width="14" height="14" viewBox="0 0 14 14" fill="none" xmlns="http://www.w3.org/2000/svg">
<g clip-path="url(#clip0_827_3545)">
<path d="M12.8332 7.00008H11.3865C11.1316 6.99954 10.8835 7.08251 10.6802 7.23631C10.4768 7.39011 10.3295 7.60628 10.2607 7.85175L8.88984 12.7284C8.881 12.7587 8.86258 12.7853 8.83734 12.8042C8.81209 12.8232 8.78139 12.8334 8.74984 12.8334C8.71828 12.8334 8.68758 12.8232 8.66234 12.8042C8.63709 12.7853 8.61867 12.7587 8.60984 12.7284L5.38984 1.27175C5.381 1.24146 5.36258 1.21485 5.33734 1.19591C5.31209 1.17698 5.28139 1.16675 5.24984 1.16675C5.21828 1.16675 5.18758 1.17698 5.16234 1.19591C5.13709 1.21485 5.11867 1.24146 5.10984 1.27175L3.739 6.14841C3.67044 6.39292 3.52398 6.60838 3.32184 6.76209C3.11971 6.9158 2.87294 6.99935 2.619 7.00008H1.1665" stroke="#4EA5D9" stroke-width="1.16667" stroke-linecap="round" stroke-linejoin="round"/>
</g>
<defs>
<clipPath id="clip0_827_3545">
<rect width="14" height="14" fill="white"/>
</clipPath>
</defs>
</svg>
