<?xml version="1.0" encoding="UTF-8" ?>
<!DOCTYPE svg PUBLIC "-//W3C//DTD SVG 1.1//EN" "http://www.w3.org/Graphics/SVG/1.1/DTD/svg11.dtd">
<svg width="951pt" height="315pt" viewBox="0 0 951 315" xmlns="http://www.w3.org/2000/svg">
<g id="_f15a23ff">
<path fill="#f15a23" opacity="1.00" d=" M 208.61 6.87 C 215.39 6.23 222.19 5.92 229.00 6.00 C 246.99 6.02 264.98 5.97 282.97 6.01 C 294.62 6.41 307.06 7.32 317.00 14.07 C 325.53 19.75 329.82 29.81 331.60 39.57 C 333.57 49.60 333.19 59.86 333.29 70.01 C 333.92 80.68 333.08 91.34 333.25 102.01 C 332.95 112.69 332.35 123.83 327.59 133.60 C 324.26 140.35 318.01 145.34 310.87 147.54 C 300.61 150.95 289.66 150.91 278.98 151.24 C 262.65 151.28 246.33 151.23 230.01 151.26 C 217.76 151.03 205.21 151.22 193.39 147.52 C 185.51 145.08 178.68 139.27 175.49 131.60 C 170.43 119.73 170.85 106.58 170.48 93.94 C 170.59 78.59 170.20 63.24 171.06 47.91 C 171.97 37.21 173.61 25.46 181.42 17.40 C 188.46 10.09 198.93 7.99 208.61 6.87 M 228.28 21.39 C 219.17 21.69 209.81 21.17 201.00 23.94 C 196.09 25.40 191.80 28.97 189.74 33.69 C 186.42 40.96 186.41 49.13 186.06 56.96 C 185.98 68.96 185.41 80.97 185.96 92.97 C 186.20 102.77 185.57 112.88 188.73 122.31 C 190.32 127.21 194.03 131.40 198.90 133.20 C 206.28 135.92 214.28 135.64 222.02 135.98 C 238.66 136.03 255.30 135.98 271.94 136.00 C 280.98 135.97 290.09 136.20 299.05 134.83 C 305.12 133.96 311.37 130.80 314.02 124.99 C 318.55 115.37 317.89 104.42 318.02 94.06 C 318.65 81.04 317.89 68.00 317.96 54.97 C 317.49 46.44 317.16 37.14 311.93 29.97 C 306.30 22.93 296.57 22.16 288.24 21.63 C 268.26 21.09 248.26 21.14 228.28 21.39 Z" />
<path fill="#f15a23" opacity="1.00" d=" M 12.03 6.71 C 62.50 6.77 112.97 6.81 163.44 6.69 C 163.59 11.77 163.43 16.85 163.54 21.92 C 118.12 22.12 72.70 21.91 27.28 22.03 C 27.22 34.93 27.27 47.84 27.25 60.74 C 58.16 60.78 89.08 60.70 119.99 60.78 C 131.86 61.36 144.70 62.16 154.73 69.26 C 163.46 75.47 166.36 86.74 166.92 96.90 C 167.57 108.71 167.36 121.21 162.08 132.05 C 157.99 140.53 149.51 146.00 140.62 148.37 C 131.97 150.76 122.92 151.39 113.98 151.26 C 94.32 151.21 74.66 151.35 55.01 151.19 C 42.18 150.44 28.16 147.77 18.92 138.08 C 11.58 130.88 9.49 120.17 9.24 110.27 C 14.37 110.24 19.49 110.26 24.62 110.23 C 25.11 116.75 26.57 123.74 31.71 128.26 C 40.01 135.38 51.60 135.93 62.01 136.23 C 79.34 136.26 96.66 136.28 113.98 136.21 C 123.95 135.85 134.95 135.58 143.22 129.25 C 149.93 124.04 151.66 115.05 151.91 107.03 C 152.20 98.52 151.24 88.61 144.21 82.79 C 137.13 77.24 127.69 76.45 119.04 76.02 C 83.36 75.99 47.69 75.98 12.02 76.03 C 12.00 52.92 11.97 29.82 12.03 6.71 Z" />
<path fill="#f15a23" opacity="1.00" d=" M 339.73 6.72 C 390.14 6.76 440.54 6.81 490.95 6.70 C 491.04 11.81 491.04 16.92 490.95 22.04 C 445.64 21.98 400.33 21.97 355.02 22.04 C 355.02 34.94 354.94 47.84 355.06 60.75 C 383.05 60.75 411.05 60.75 439.04 60.75 C 449.49 60.65 460.10 60.97 470.25 63.69 C 477.35 65.56 484.23 69.36 488.39 75.58 C 493.37 83.02 494.41 92.26 494.72 100.99 C 494.88 111.63 494.44 122.81 489.46 132.46 C 486.06 139.12 479.91 144.15 472.95 146.74 C 462.80 150.69 451.72 151.40 440.94 151.26 C 421.65 151.21 402.35 151.32 383.07 151.21 C 371.26 150.58 358.77 148.31 349.29 140.76 C 340.26 133.52 336.62 121.47 337.00 110.24 C 342.12 110.27 347.25 110.24 352.37 110.25 C 352.48 117.36 354.65 125.01 360.67 129.36 C 368.75 135.33 379.33 135.88 389.01 136.21 C 405.00 136.32 421.00 136.19 436.99 136.26 C 447.21 136.03 458.09 136.31 467.39 131.43 C 474.38 128.09 478.13 120.50 478.96 113.09 C 479.88 104.73 480.17 95.66 476.11 88.02 C 473.32 82.68 467.72 79.58 462.09 78.06 C 455.24 76.29 448.12 75.87 441.07 76.00 C 407.30 75.98 373.53 76.05 339.75 75.96 C 339.74 52.88 339.77 29.80 339.73 6.72 Z" />
</g>
<g id="_6e6f73ff">
<path fill="#6e6f73" opacity="1.00" d=" M 17.48 174.45 C 26.59 164.95 40.46 162.86 53.01 162.28 C 80.67 162.23 108.33 162.21 135.99 162.30 C 148.34 162.90 161.99 164.73 171.18 173.85 C 180.03 182.83 181.59 196.17 181.83 208.19 C 169.83 208.33 157.82 208.23 145.81 208.23 C 145.56 203.34 144.23 197.88 139.70 195.21 C 132.88 191.21 124.61 191.39 116.94 191.24 C 99.97 191.32 82.99 191.12 66.02 191.34 C 58.19 191.54 49.00 193.42 44.86 200.86 C 39.82 210.40 40.93 221.60 40.75 232.02 C 40.99 241.20 40.12 250.45 41.56 259.55 C 42.55 265.10 45.16 270.90 50.36 273.64 C 56.04 276.68 62.71 276.62 68.99 276.76 C 86.34 276.74 103.69 276.79 121.05 276.73 C 127.96 276.47 135.71 276.10 141.05 271.12 C 146.72 265.39 147.41 256.78 145.94 249.23 C 127.29 249.29 108.65 249.19 90.01 249.28 C 89.98 239.86 90.02 230.43 89.99 221.00 C 120.57 221.00 151.16 220.99 181.75 221.01 C 181.69 236.60 181.88 252.19 181.65 267.77 C 181.13 278.95 179.66 291.78 170.42 299.38 C 161.34 306.60 149.11 307.33 138.00 307.97 C 109.64 308.03 81.29 308.00 52.93 307.99 C 40.57 307.48 27.05 305.22 17.93 296.11 C 8.59 286.64 6.35 272.70 6.01 259.94 C 6.01 243.95 5.94 227.96 6.05 211.98 C 6.57 198.89 8.22 184.52 17.48 174.45 Z" />
<path fill="#6e6f73" opacity="1.00" d=" M 252.34 163.75 C 270.66 163.70 288.99 163.85 307.31 163.68 C 332.37 211.42 356.77 259.52 381.74 307.31 C 382.34 291.21 381.82 275.06 382.00 258.94 C 382.01 227.20 381.98 195.47 382.01 163.73 C 399.97 163.78 417.92 163.75 435.88 163.75 C 455.72 202.69 475.32 241.76 495.25 280.67 C 515.88 241.76 536.12 202.65 556.71 163.73 C 574.06 163.81 591.41 163.69 608.76 163.79 C 608.74 211.85 608.75 259.92 608.76 307.98 C 597.09 308.03 585.42 307.96 573.75 308.02 C 573.72 272.95 573.81 237.88 573.70 202.81 C 557.02 237.86 540.05 272.77 523.49 307.88 C 504.99 308.16 486.48 307.91 467.98 308.01 C 457.58 286.43 447.08 264.91 436.65 243.36 C 430.22 229.82 423.31 216.49 417.24 202.80 C 416.70 237.85 417.14 272.93 417.00 308.00 C 391.67 307.97 366.33 308.03 340.99 307.98 C 335.21 296.48 329.52 284.94 323.64 273.50 C 294.53 273.48 265.43 273.53 236.32 273.47 C 230.27 284.89 224.56 296.49 218.65 307.98 C 205.05 308.02 191.45 308.00 177.85 307.99 C 202.71 259.93 227.57 211.86 252.34 163.75 M 280.09 190.87 C 270.19 208.46 261.04 226.50 251.38 244.24 C 270.42 244.26 289.46 244.25 308.49 244.25 C 299.45 226.62 290.46 208.96 281.38 191.35 C 281.06 191.23 280.41 190.99 280.09 190.87 Z" />
<path fill="#6e6f73" opacity="1.00" d=" M 621.26 163.76 C 670.60 163.74 719.93 163.76 769.27 163.75 C 769.23 173.33 769.24 182.90 769.26 192.47 C 731.51 192.55 693.75 192.48 656.00 192.51 C 656.00 201.34 655.99 210.17 656.00 219.00 C 692.59 219.04 729.18 218.92 765.77 219.06 C 765.73 228.70 765.75 238.34 765.76 247.99 C 729.17 248.02 692.59 247.99 656.00 248.00 C 656.00 258.33 656.00 268.67 656.00 279.00 C 693.75 278.99 731.50 279.02 769.26 278.98 C 769.24 288.65 769.23 298.32 769.26 307.99 C 719.92 307.99 670.58 308.03 621.24 307.98 C 621.26 259.90 621.23 211.83 621.26 163.76 Z" />
<path fill="#6e6f73" opacity="1.00" d=" M 797.06 168.13 C 807.24 164.36 818.25 163.62 829.01 163.75 C 849.34 163.76 869.67 163.75 890.00 163.75 C 904.69 163.45 920.75 164.80 932.71 174.24 C 941.75 181.44 944.97 193.38 945.07 204.50 C 932.55 204.49 920.03 204.49 907.52 204.51 C 907.17 201.17 906.83 197.25 903.75 195.21 C 899.67 192.65 894.63 192.72 889.99 192.51 C 870.66 192.50 851.33 192.51 832.00 192.50 C 827.08 192.62 821.44 193.03 817.85 196.85 C 814.22 201.56 814.39 208.27 816.35 213.64 C 817.98 217.86 822.98 219.18 827.08 219.23 C 845.71 219.27 864.34 219.23 882.97 219.24 C 894.61 219.32 906.33 218.88 917.87 220.61 C 925.85 221.82 934.12 225.31 938.52 232.43 C 944.74 242.36 945.11 254.58 945.02 265.94 C 945.06 277.07 942.56 289.18 934.23 297.17 C 925.63 305.19 913.42 307.47 902.05 307.98 C 875.03 308.03 848.01 307.97 820.99 308.01 C 808.89 307.73 795.52 306.24 786.15 297.80 C 777.54 290.14 775.92 277.89 775.82 266.99 C 787.65 267.02 799.49 266.97 811.32 267.02 C 811.80 274.83 820.00 278.82 826.98 278.94 C 846.99 279.08 867.00 278.97 887.01 278.99 C 892.62 278.77 898.69 278.74 903.63 275.71 C 908.61 272.50 909.20 265.82 908.42 260.47 C 907.98 256.23 905.14 252.36 901.16 250.81 C 896.06 248.73 890.44 248.51 885.01 248.49 C 868.34 248.52 851.67 248.50 835.01 248.50 C 823.91 248.55 812.70 248.55 801.79 246.26 C 794.75 244.76 787.67 241.62 783.16 235.79 C 777.92 229.01 776.47 220.22 775.87 211.90 C 775.47 201.68 775.34 190.74 780.58 181.58 C 784.06 175.15 790.28 170.61 797.06 168.13 Z" />
</g>
</svg>
