<?xml version="1.0" encoding="UTF-8" standalone="no"?>
<!-- Created with Inkscape (http://www.inkscape.org/) -->

<svg
   version="1.1"
   id="svg2"
   width="783.33356"
   height="277.06808"
   viewBox="0 0 783.33356 277.06809"
   xmlns="http://www.w3.org/2000/svg"
   xmlns:svg="http://www.w3.org/2000/svg">
  <defs
     id="defs6">
    <clipPath
       clipPathUnits="userSpaceOnUse"
       id="clipPath22">
      <path
         d="M 0,614.173 H 614.173 V 0 H 0 Z"
         id="path20" />
    </clipPath>
  </defs>
  <g
     id="g8"
     transform="matrix(1.3333333,0,0,-1.3333333,-18.539506,541.66983)">
    <path
       d="m 369.575,242.828 h -37.603 v 121.65 h 37.603 z"
       style="fill:#cb1517;fill-opacity:1;fill-rule:nonzero;stroke:none"
       id="path10" />
    <g
       id="g12"
       transform="translate(479.0744,242.7953)">
      <path
         d="M 0,0 H -91.328 V 121.682 H 0 V 93.659 H -54.782 V 75.915 h 44.33 V 48.786 h -44.33 V 29.103 H 0 Z"
         style="fill:#cb1517;fill-opacity:1;fill-rule:nonzero;stroke:none"
         id="path14" />
    </g>
    <g
       id="g16">
      <g
         id="g18"
         clip-path="url(#clipPath22)"
         style="fill:#cb1517;fill-opacity:1">
        <g
           id="g24"
           transform="translate(535.9758,270.8403)"
           style="fill:#cb1517;fill-opacity:1">
          <path
             d="m 0,0 c 4.961,0 8.164,-0.359 12.771,2.123 3.365,1.951 6.03,4.606 7.983,7.982 4.247,7.087 5.674,15.241 5.674,23.407 0,8.155 -2.297,18.789 -7.455,25.543 -5.847,7.269 -11.519,6.903 -20.041,6.903 H -5.317 V 0 Z M -42.735,93.637 H 2.124 c 17.571,0 31.573,-2.309 44.698,-14.908 C 59.586,66.67 65.429,50.004 65.429,32.627 65.429,16.651 59.769,0 48.595,-11.53 36.533,-24.122 21.465,-28.025 4.603,-28.025 h -47.338 z"
             style="fill:#cb1517;fill-opacity:1;fill-rule:nonzero;stroke:none"
             id="path26" />
        </g>
        <g
           id="g28"
           transform="translate(195.0182,395.2206)"
           style="fill:#cb1517;fill-opacity:1">
          <path
             d="m 0,0 c -49.521,0 -89.667,-40.146 -89.667,-89.668 0,-7.052 0.84,-13.903 2.38,-20.487 l 139.21,93.568 C 37.269,-6.156 19.358,0 0,0"
             style="fill:#cb1517;fill-opacity:1;fill-rule:nonzero;stroke:none"
             id="path30" />
        </g>
        <g
           id="g32"
           transform="translate(112.5558,270.3012)"
           style="fill:#cb1517;fill-opacity:1">
          <path
             d="M 0,0 C 5.796,-13.539 14.833,-25.356 26.13,-34.493 L 128.755,86.542 Z"
             style="fill:#cb1517;fill-opacity:1;fill-rule:nonzero;stroke:none"
             id="path34" />
        </g>
        <g
           id="g36"
           transform="translate(195.0182,215.8862)"
           style="fill:#cb1517;fill-opacity:1">
          <path
             d="m 0,0 c 49.521,0 89.668,40.146 89.668,89.667 0,21.228 -7.392,40.718 -19.722,56.076 L -43.893,11.485 C -30.916,4.184 -15.95,0 0,0"
             style="fill:#cb1517;fill-opacity:1;fill-rule:nonzero;stroke:none"
             id="path38" />
        </g>
        <g
           id="g40"
           transform="translate(117.4445,210.7563)"
           style="fill:#cb1517;fill-opacity:1">
          <path
             d="m 0,0 c -2.67,-3.149 -2.282,-7.862 0.866,-10.532 1.405,-1.191 3.121,-1.773 4.828,-1.773 2.119,0 4.225,0.896 5.704,2.639 l 22.283,26.281 c -4.389,2.469 -8.548,5.291 -12.439,8.437 z"
             style="fill:#cb1517;fill-opacity:1;fill-rule:nonzero;stroke:none"
             id="path42" />
        </g>
        <g
           id="g44"
           transform="translate(40.5905,239.9369)"
           style="fill:#cb1517;fill-opacity:1">
          <path
             d="m 0,0 77.147,155.521 c 1.835,3.696 0.325,8.18 -3.373,10.014 -3.694,1.834 -8.18,0.326 -10.014,-3.373 L -25.907,-18.597 c -1.506,-3.034 -0.781,-6.703 1.768,-8.937 2.549,-2.236 6.282,-2.476 9.095,-0.584 l 87.009,58.482 c -2.022,4.725 -3.632,9.664 -4.824,14.765 z"
             style="fill:#cb1517;fill-opacity:1;fill-rule:nonzero;stroke:none"
             id="path46" />
        </g>
        <g
           id="g48"
           transform="translate(287.4089,398.0659)"
           style="fill:#cb1517;fill-opacity:1">
          <path
             d="m 0,0 c -2.486,2.779 -6.642,3.298 -9.74,1.221 l -30.727,-20.653 c 6.763,-4.815 12.832,-10.539 18.023,-17.005 L 0.128,-9.813 C 2.541,-6.968 2.485,-2.78 0,0"
             style="fill:#cb1517;fill-opacity:1;fill-rule:nonzero;stroke:none"
             id="path50" />
        </g>
      </g>
    </g>
  </g>
</svg>
