<svg width="714" height="507" viewBox="0 0 714 507" fill="none" xmlns="http://www.w3.org/2000/svg">
<path d="M566.794 287.409L382.358 13.516C370.216 -4.50532 343.784 -4.50532 331.643 13.516L147.207 287.409C132.352 309.47 148.082 339.257 174.603 339.257H539.398C565.919 339.257 581.649 309.47 566.794 287.409ZM286.711 140.4L344.061 55.2466C350.066 45.6961 363.935 45.6961 369.939 55.2466L427.29 140.4C431.898 147.724 429.572 157.43 422.161 161.849L364.81 193.874C359.991 196.745 354.009 196.745 349.19 193.874L291.84 161.849C284.429 157.43 282.103 147.724 286.711 140.4ZM508.59 305.686L357 305.497L204.967 305.686C188.328 305.686 183.642 282.767 198.93 276.166L351.251 212.652C355.106 210.993 359.471 210.993 363.326 212.652L514.628 276.166C529.915 282.767 525.229 305.686 508.59 305.686Z" fill="#4EA5D9"/>
<path d="M413.736 450.704L413.925 506.338H486.712L549.597 430.302L561.85 430.291V506.338H617.383V430.324L714 430.191V374.269H525.845L457.016 450.704" fill="#4EA5D9"/>
<path d="M316.365 506.337C330.803 488.644 377.675 431.512 378.474 430.901L379.117 430.291H458.125V374.268H356.008C355.343 374.268 354.699 374.502 354.189 374.912L294.897 450.049C294.698 450.26 294.498 450.482 294.309 450.693C293.899 450.693 293.489 450.693 293.079 450.693H250.209L249.832 374.257H0L0.377017 506.326H56.3314V430.302H189.242V450.693H86.0385V506.326" fill="#4EA5D9"/>
<path d="M535.125 38.8405V48.9513H549.94V38.8405V23.3024V13.1804H535.125V23.3024" fill="#4EA5D9"/>
<path d="M527.076 23.7795V33.8571H515.987V48.9623H481.512L464.48 28.3632H461.153V48.9623H446.116V28.3744L419.936 28.33V13.1914H470.911L489.551 33.8904H501.139L501.028 13.1914H515.843L515.987 23.7795H527.076Z" fill="#4EA5D9"/>
</svg>
